<svg xmlns="http://www.w3.org/2000/svg" width="76.022" height="56.232" viewBox="0 0 76.022 56.232"><defs><style>.a{fill:#fff;}</style></defs><g transform="translate(-100.002 -204.144)"><g transform="translate(100.002 204.144)"><g transform="translate(0 0)"><path class="a" d="M599.348,227.471c-.2.292-.32.462-.438.632a32.8,32.8,0,0,1-4.694,5.6,5,5,0,0,1-5.678.9,4.231,4.231,0,0,1-.888-.605,10.24,10.24,0,0,1-.767-.81c-.238.512-.483,1-.692,1.5a.749.749,0,0,1-.9.5,3.489,3.489,0,0,1-2.366-1.416,2,2,0,0,1-.247-2A103.578,103.578,0,0,1,591.17,214.7c2.047-3.354,4.319-6.57,6.467-9.863a1.421,1.421,0,0,1,1.439-.681,3.55,3.55,0,0,1,2.461,1.246.755.755,0,0,1,.03,1.093,145.523,145.523,0,0,0-9.335,14.2c-.474.816-.928,1.644-1.381,2.473a4.435,4.435,0,0,0-.226.6l.132.086c.167-.193.346-.376.5-.58a40.513,40.513,0,0,1,6.484-7.042,8.47,8.47,0,0,1,3.268-1.9,3.673,3.673,0,0,1,1.664-.024c1.331.315,1.8,1.368,1.466,2.975a25.293,25.293,0,0,1-2.82,6.879c-.526.964-1.1,1.9-1.637,2.811ZM588.07,231.5c0,.919.569,1.3,1.321.873a6.44,6.44,0,0,0,1.515-1.217,43.8,43.8,0,0,0,7.382-10.856,22.958,22.958,0,0,0,1.016-2.851.374.374,0,0,0-.6-.447,4.408,4.408,0,0,0-.778.665,75.052,75.052,0,0,0-9.748,13.5A1.283,1.283,0,0,0,588.07,231.5Z" transform="translate(-536.664 -204.144)"/><path class="a" d="M444.364,318.661a30.273,30.273,0,0,1,5.726-8.4,8.439,8.439,0,0,1,2.959-2.185,4.148,4.148,0,0,1,3.209.148,2.232,2.232,0,0,0,.821.169,3.083,3.083,0,0,1,2.939,2.6,8.71,8.71,0,0,1-.373,2.652,29.043,29.043,0,0,1-8.618,13.586,10.986,10.986,0,0,1-2.55,1.53,2.987,2.987,0,0,1-2.985-.375,5.072,5.072,0,0,1-2.565-3.195,6.727,6.727,0,0,1,.2-3.068c.149-.622.349-1.233.546-1.922Zm2.348,6.865c.141.287.214.7.443.823a1.023,1.023,0,0,0,.865-.187,8.2,8.2,0,0,0,1.34-1.233,40.7,40.7,0,0,0,5.616-8.849,14.584,14.584,0,0,0,1.674-4.971c.025-.264-.062-.7-.231-.781a.984.984,0,0,0-.811.189,6.093,6.093,0,0,0-1.06,1.015,49.691,49.691,0,0,0-6.7,10.679A11.8,11.8,0,0,0,446.712,325.526Z" transform="translate(-410.244 -297.968)"/><g transform="translate(0 1.801)"><path class="a" d="M104.955,345.283a7.222,7.222,0,0,1-4.581-4.351c-.663-1.417-.453-2.146.753-3.144a22.789,22.789,0,0,1,5.106-2.992,105.9,105.9,0,0,1,12.806-4.772,1.355,1.355,0,0,0,.883-.675c1.59-2.981,3.208-5.946,4.788-8.932,1.894-3.578,3.758-7.171,5.638-10.755.166-.317.394-.605.53-.933a1.476,1.476,0,0,1,1.708-.9,3.813,3.813,0,0,1,2.878,1.61.657.657,0,0,1,.078.818c-2.179,3.292-3.967,6.806-5.821,10.282-1.2,2.253-2.374,4.522-3.557,6.785-.112.214-.206.436-.321.682,1.039-.224,6.5-1.325,7.5-1.447a20.277,20.277,0,0,1,2.79-.191c.308,0,.738.058.75.472.012.429-.364.623-.743.721-1.642.424-7.775,1.774-9.415,2.208a6.243,6.243,0,0,0-2.112.693,6.29,6.29,0,0,0-1.206,1.792,38.821,38.821,0,0,1-6.463,8.09,18.038,18.038,0,0,1-7.293,4.313c-.969.273-1.983.385-2.976.571-.073.014-.144.041-.217.062Q105.7,345.282,104.955,345.283Zm12.457-12.153-.086-.1c-.1.036-.2.066-.3.108-1.555.675-3.126,1.315-4.659,2.035a33.475,33.475,0,0,0-6.924,4.031,7.126,7.126,0,0,0-1.52,1.68c-.492.772,0,1.458.921,1.428a8.858,8.858,0,0,0,3.865-1.126,21.065,21.065,0,0,0,5.632-4.5C115.406,335.535,116.392,334.316,117.412,333.129Z" transform="translate(-100.002 -299.758)"/><path class="a" d="M453.155,229.225a2.444,2.444,0,0,1-2.435-3.27,4.025,4.025,0,0,1,3.454-2.857,2.434,2.434,0,0,1,2.642,3.1A4.021,4.021,0,0,1,453.155,229.225Z" transform="translate(-417.274 -223.091)"/></g></g><g transform="translate(23.529 34.727)"><path class="a" d="M362.327,580.922l-1.873.182c-.047.48-.063.947-.143,1.4a5.735,5.735,0,0,1-2.613,3.843,9.036,9.036,0,0,1-5.9,1.542,4.583,4.583,0,0,1-4.028-2.805,1.535,1.535,0,0,1,.377-1.86,6.458,6.458,0,0,1,2.343-1.38,24.749,24.749,0,0,1,5.662-1.329c.485-.065.97-.118,1.563-.19-.276-.605-.494-1.183-.793-1.717-.463-.827-1.008-1.608-1.463-2.439a6.272,6.272,0,0,1-.583-1.5,3.038,3.038,0,0,1,1.088-3.156,7.27,7.27,0,0,1,7.636-1.427,3.088,3.088,0,0,1,.793.444,1.2,1.2,0,0,1,.357,1.781,3,3,0,0,1-.666.807c-.53.421-1.1.793-1.669,1.162a2.691,2.691,0,0,1-.6.213l-.058-.093c.085-.1.172-.2.256-.309a13.308,13.308,0,0,0,1.077-1.383c.575-.962.275-1.517-.835-1.661a4.4,4.4,0,0,0-4.108,2.075,2.608,2.608,0,0,0-.145,2.307c.3.747.69,1.456,1.039,2.183.374.779.754,1.556,1.117,2.341a.31.31,0,0,0,.332.226c.668-.011,1.338-.017,2.006,0,.222.007.269-.122.348-.267.976-1.786,1.951-3.575,2.939-5.355a.768.768,0,0,1,.992-.446,2.29,2.29,0,0,1,1.219.723.412.412,0,0,1,.02.586c-.8,1.222-1.595,2.453-2.384,3.685a3,3,0,0,0-.175.37l.072.056c.1-.113.2-.22.291-.339a21.854,21.854,0,0,1,3.34-3.839,7.722,7.722,0,0,1,1.577-1.029,1.8,1.8,0,0,1,1.054-.111c.759.136,1.027.708.855,1.641a11.872,11.872,0,0,1-1.37,3.555,15.691,15.691,0,0,1-3.474,4.519,6.221,6.221,0,0,1-1.629,1.006,2.034,2.034,0,0,1-2.342-.56c-.081-.082-.157-.166-.29-.307-.368.816-.725,1.586-1.064,2.363-.416.954-.818,1.915-1.227,2.872a.744.744,0,0,1-.876.529,2.812,2.812,0,0,1-1-.369.87.87,0,0,1-.357-1.316q1.579-3.447,3.169-6.888C362.214,581.173,362.257,581.078,362.327,580.922Zm-4.7.629c-.591.135-1.127.243-1.655.38a17.156,17.156,0,0,0-4.857,1.863,4.493,4.493,0,0,0-1.175,1.031.886.886,0,0,0,.7,1.52,6.95,6.95,0,0,0,5.8-2.185A4.579,4.579,0,0,0,357.628,581.551Zm12.359-5.777-.158-.1c-.256.238-.529.461-.764.718a44.022,44.022,0,0,0-4.915,6.7c-.069.112-.1.352-.039.416a.5.5,0,0,0,.447.12,5.213,5.213,0,0,0,1.224-.786,17.3,17.3,0,0,0,4.077-6.439A4.026,4.026,0,0,0,369.987,575.774Z" transform="translate(-347.601 -569.584)"/><path class="a" d="M560.085,623.576c-.075.114-.148.23-.225.343-.8,1.182-1.6,2.368-2.415,3.541a5.972,5.972,0,0,1-.687.753,1.22,1.22,0,0,1-1.429.374,1.481,1.481,0,0,1-.927-1.3,5.673,5.673,0,0,1,.3-2.32,15.362,15.362,0,0,1,4.279-6.867,2.669,2.669,0,0,1,2.566-.81,3.671,3.671,0,0,1,1.077.557c.262.182.446.2.6-.08a.683.683,0,0,1,.706-.351,1.931,1.931,0,0,1,1.31.595.487.487,0,0,1,.059.733,26.251,26.251,0,0,0-3.665,7.318,17.4,17.4,0,0,0-.49,2.576c-.07.457.027.535.494.536a23.9,23.9,0,0,1,5.716.643,8.508,8.508,0,0,1,2.726,1.083c1.2.794,1.177,1.7-.073,2.408a7.275,7.275,0,0,1-4,.866,7.915,7.915,0,0,1-4.979-1.837,6.31,6.31,0,0,1-1.037-1.139.839.839,0,0,0-.988-.411A27.47,27.47,0,0,0,552.3,632.9c-.577.28-1.126.622-1.674.959-.23.142-.362.108-.389-.148a2.394,2.394,0,0,1,.019-.728,3.047,3.047,0,0,1,2-2.5,21.767,21.767,0,0,1,4.474-1.028c.651-.086,1.3-.146,1.959-.205.241-.022.372-.121.363-.372a11.2,11.2,0,0,1,1.087-5.179.343.343,0,0,0,.017-.1C560.13,623.6,560.107,623.587,560.085,623.576Zm1.35,7.082a8.541,8.541,0,0,0,.656.853,5.291,5.291,0,0,0,4.421,1.419,2.516,2.516,0,0,0,1.016-.337.594.594,0,0,0,0-1.093,3.275,3.275,0,0,0-.726-.343,15.583,15.583,0,0,0-4.854-.614A2.637,2.637,0,0,0,561.436,630.657Zm-4.718-3.919a1.356,1.356,0,0,0,.24-.107c.1-.086.187-.176.276-.27a51.564,51.564,0,0,0,5.19-7.325.41.41,0,0,0,.027-.35.327.327,0,0,0-.307-.084,2.206,2.206,0,0,0-.775.438c-.707.794-1.415,1.6-2.038,2.455a16.89,16.89,0,0,0-2.4,4.387C556.846,626.128,556.8,626.388,556.717,626.738Z" transform="translate(-530.961 -612.678)"/><path class="a" d="M708.937,621.75a3.463,3.463,0,0,0-1.631-1.23,2.67,2.67,0,0,0-3.057.677,4.272,4.272,0,0,0-1.026,2.027,3.127,3.127,0,0,0,.112,1.9,1.66,1.66,0,0,0,.29.452c.093.108.171.077.208-.064s.052-.276.088-.411a7.374,7.374,0,0,1,1.618-2.965,2.852,2.852,0,0,1,1.355-.935.7.7,0,0,1,.972.59,1.535,1.535,0,0,1,.016.315,3.879,3.879,0,0,1-.569,1.79,8.469,8.469,0,0,1-2.6,2.84,4.3,4.3,0,0,1-2.331.886,2.44,2.44,0,0,1-1.906-.646,2.41,2.41,0,0,1-.652-1.715,6,6,0,0,1,.729-3c.143-.269.239-.3.524-.2a1.633,1.633,0,0,0,1.467-.137,6.767,6.767,0,0,0,1.756-1.606,5.1,5.1,0,0,0,.855-1.485.545.545,0,0,0-.015-.424,2.152,2.152,0,0,0-1.175-1.2,6.159,6.159,0,0,0-.91-.222h-.176a2.12,2.12,0,0,0-.835.289,5.971,5.971,0,0,0-1.077.945,2.556,2.556,0,0,0-.224.242q-1.167,1.448-2.282,2.941a31.256,31.256,0,0,1-3.557,4.26,5.244,5.244,0,0,1-1.978,1.3c-.867.274-1.376-.124-1.285-1.014a3.633,3.633,0,0,1,.194-.887,17.294,17.294,0,0,1,3.385-5.383,10.109,10.109,0,0,1,1.276-1.146c.1-.085.316-.037.478-.05-.015.159.022.349-.053.471a9.543,9.543,0,0,1-2.253,2.583c-.551.434-.56.548.022.964.124.088.26.156.392.232a.667.667,0,0,0,.808-.076,9.692,9.692,0,0,0,2.533-2.978.887.887,0,0,0,.066-.868,3.154,3.154,0,0,0-.355-.641,2.885,2.885,0,0,0-4.36-.279,15.28,15.28,0,0,0-4.143,6.269,4.431,4.431,0,0,0-.26,2.588,2.478,2.478,0,0,0,3.622,1.51,10.748,10.748,0,0,0,2.8-2.376c.446-.495.864-1.014,1.262-1.484l1.335-1.98a5.658,5.658,0,0,0-.309,1.279.341.341,0,0,1-.031.079v.775c.025.179.045.359.073.537A3.752,3.752,0,0,0,700,627.9a5.783,5.783,0,0,0,1.865.639,5.055,5.055,0,0,0,3.15-.414,8.358,8.358,0,0,0,2.762-2.106,6.013,6.013,0,0,0,1.443-2.6A1.984,1.984,0,0,0,708.937,621.75Zm-5.721-3.255a3.284,3.284,0,0,1,.5-.378.623.623,0,0,1,.248-.034.663.663,0,0,1,.016.263,3.834,3.834,0,0,1-.269.569,7.012,7.012,0,0,1-1.823,2.157,4.291,4.291,0,0,1-.5.282c-.174-.035-.237-.161-.143-.327.105-.188.227-.368.35-.547A11.96,11.96,0,0,1,703.216,618.495Z" transform="translate(-656.801 -612.476)"/></g></g></g></svg>